<?xml version="1.0" encoding="utf-8"?>
<!-- Generator: Adobe Illustrator 17.0.2, SVG Export Plug-In . SVG Version: 6.00 Build 0)  -->
<!DOCTYPE svg PUBLIC "-//W3C//DTD SVG 1.1//EN" "http://www.w3.org/Graphics/SVG/1.1/DTD/svg11.dtd">
<svg version="1.1" id="Layer_1" xmlns="http://www.w3.org/2000/svg" xmlns:xlink="http://www.w3.org/1999/xlink" x="0px" y="0px"
	 width="120px" height="120px" viewBox="0 0 120 120" enable-background="new 0 0 120 120" xml:space="preserve">
<g>
	<path fill-rule="evenodd" clip-rule="evenodd" fill="#000000" d="M60.348,2.431c-32.098,0-58.127,26.023-58.127,58.127
		c0,25.682,16.655,47.47,39.751,55.157c2.905,0.538,3.972-1.261,3.972-2.797c0-1.386-0.054-5.965-0.079-10.822
		c-16.171,3.517-19.583-6.858-19.583-6.858c-2.644-6.718-6.454-8.505-6.454-8.505c-5.274-3.608,0.398-3.533,0.398-3.533
		c5.837,0.41,8.91,5.991,8.91,5.991c5.184,8.886,13.598,6.317,16.915,4.832c0.522-3.756,2.028-6.322,3.69-7.773
		C36.83,84.78,23.258,79.795,23.258,57.522c0-6.346,2.271-11.531,5.99-15.602c-0.604-1.465-2.593-7.376,0.563-15.383
		c0,0,4.881-1.561,15.989,5.959c4.637-1.288,9.61-1.934,14.549-1.957c4.94,0.023,9.916,0.668,14.562,1.957
		c11.095-7.521,15.969-5.959,15.969-5.959c3.164,8.007,1.174,13.919,0.571,15.383c3.727,4.071,5.982,9.256,5.982,15.602
		c0,22.326-13.598,27.241-26.542,28.681c2.085,1.804,3.942,5.341,3.942,10.764c0,7.778-0.067,14.037-0.067,15.952
		c0,1.547,1.046,3.36,3.992,2.789c23.084-7.695,39.718-29.476,39.718-55.149C118.476,28.454,92.451,2.431,60.348,2.431z"/>
	<path fill="#000000" d="M24.237,85.889c-0.128,0.29-0.583,0.376-0.996,0.178c-0.422-0.19-0.658-0.584-0.522-0.873
		c0.125-0.297,0.58-0.38,1.001-0.181C24.142,85.202,24.383,85.599,24.237,85.889L24.237,85.889z M23.522,85.359"/>
	<path fill="#000000" d="M26.592,88.515c-0.277,0.257-0.82,0.137-1.187-0.269c-0.381-0.405-0.451-0.948-0.17-1.208
		c0.286-0.257,0.811-0.136,1.192,0.269C26.807,87.717,26.881,88.255,26.592,88.515L26.592,88.515z M26.037,87.92"/>
	<path fill="#000000" d="M28.884,91.863c-0.356,0.248-0.939,0.016-1.299-0.501c-0.356-0.517-0.356-1.137,0.008-1.386
		c0.36-0.248,0.934-0.024,1.299,0.488C29.247,90.989,29.247,91.61,28.884,91.863L28.884,91.863z M28.884,91.863"/>
	<path fill="#000000" d="M32.023,95.097c-0.319,0.352-0.997,0.257-1.494-0.223c-0.509-0.468-0.65-1.134-0.331-1.485
		c0.323-0.352,1.006-0.253,1.506,0.223C32.209,94.08,32.362,94.749,32.023,95.097L32.023,95.097z M32.023,95.097"/>
	<path fill="#000000" d="M36.355,96.975c-0.141,0.455-0.794,0.662-1.452,0.468c-0.658-0.199-1.088-0.732-0.955-1.192
		c0.136-0.459,0.793-0.674,1.456-0.467C36.06,95.983,36.491,96.512,36.355,96.975L36.355,96.975z M36.355,96.975"/>
	<path fill="#000000" d="M41.112,97.323c0.016,0.479-0.542,0.877-1.233,0.885c-0.695,0.016-1.258-0.372-1.265-0.844
		c0-0.484,0.546-0.877,1.241-0.889C40.545,96.462,41.112,96.847,41.112,97.323L41.112,97.323z M41.112,97.323"/>
	<path fill="#000000" d="M45.539,96.57c0.083,0.467-0.398,0.948-1.084,1.075c-0.675,0.124-1.299-0.165-1.386-0.629
		c-0.084-0.479,0.405-0.96,1.079-1.084C44.835,95.813,45.451,96.095,45.539,96.57L45.539,96.57z M45.539,96.57"/>
</g>
</svg>
